<?xml version="1.0" encoding="UTF-8"?>
<svg xmlns="http://www.w3.org/2000/svg" width="742" height="425" xmlns:xlink="http://www.w3.org/1999/xlink" viewBox="0 0 742 425">
  <defs>
    <filter id="drop-shadow-7" filterUnits="userSpaceOnUse">
      <feOffset dx="-.99" dy="13.82"/>
      <feGaussianBlur result="blur" stdDeviation="4.94"/>
      <feFlood flood-color="#000" flood-opacity=".75"/>
      <feComposite in2="blur" operator="in"/>
      <feComposite in="SourceGraphic"/>
    </filter>
    <linearGradient id="linear-gradient" x1="551.31" y1="334.42" x2="118.01" y2="-95.2" gradientUnits="userSpaceOnUse">
      <stop offset=".27" stop-color="#eb0037"/>
      <stop offset=".6" stop-color="#3f0613"/>
    </linearGradient>
    <filter id="drop-shadow-8" filterUnits="userSpaceOnUse">
      <feOffset dx="-.99" dy="13.82"/>
      <feGaussianBlur result="blur-2" stdDeviation="4.94"/>
      <feFlood flood-color="#000" flood-opacity=".75"/>
      <feComposite in2="blur-2" operator="in"/>
      <feComposite in="SourceGraphic"/>
    </filter>
    <linearGradient id="linear-gradient-2" x1="334.53" y1="84.35" x2="403.07" y2="84.35" gradientUnits="userSpaceOnUse">
      <stop offset=".17" stop-color="#000"/>
      <stop offset=".46" stop-color="#eb0037"/>
      <stop offset=".76" stop-color="#3f0613"/>
    </linearGradient>
    <linearGradient id="linear-gradient-3" x1="300.67" y1="34.57" x2="367.91" y2="183.19" gradientUnits="userSpaceOnUse">
      <stop offset=".43" stop-color="#eb0037"/>
      <stop offset=".57" stop-color="#000"/>
    </linearGradient>
    <linearGradient id="linear-gradient-4" x1="423.1" y1="61.93" x2="379.22" y2="154.6" xlink:href="#linear-gradient-3"/>
    <linearGradient id="linear-gradient-5" x1="240.98" y1="189.53" x2="304.69" y2="189.53" gradientUnits="userSpaceOnUse">
      <stop offset="0" stop-color="#666"/>
      <stop offset=".76" stop-color="#b3b3b3"/>
    </linearGradient>
    <linearGradient id="linear-gradient-6" x1="192.74" y1="270.89" x2="316.61" y2="194.1" gradientUnits="userSpaceOnUse">
      <stop offset=".6" stop-color="#666"/>
      <stop offset=".76" stop-color="#b3b3b3"/>
    </linearGradient>
    <linearGradient id="linear-gradient-7" x1="370.36" y1="151" x2="370.36" y2=".93" gradientUnits="userSpaceOnUse">
      <stop offset=".34" stop-color="#666"/>
      <stop offset=".79" stop-color="#b3b3b3"/>
      <stop offset=".96" stop-color="#eb0037"/>
    </linearGradient>
    <linearGradient id="linear-gradient-8" x1="501.04" y1="-39.78" x2="510.84" y2="268.68" gradientTransform="translate(-65.73 43.08) rotate(-5.01)" gradientUnits="userSpaceOnUse">
      <stop offset=".43" stop-color="#eb0037"/>
      <stop offset=".57" stop-color="#666"/>
      <stop offset=".76" stop-color="#d4d8df"/>
    </linearGradient>
    <linearGradient id="linear-gradient-9" x1="523.93" y1="186.91" x2="383.25" y2="196.44" gradientUnits="userSpaceOnUse">
      <stop offset=".21" stop-color="#666"/>
      <stop offset=".63" stop-color="#b3b3b3"/>
    </linearGradient>
    <linearGradient id="linear-gradient-10" x1="548.45" y1="221.35" x2="416.17" y2="221.91" gradientUnits="userSpaceOnUse">
      <stop offset=".55" stop-color="#666"/>
      <stop offset=".76" stop-color="#b3b3b3"/>
    </linearGradient>
    <linearGradient id="linear-gradient-11" x1="283.17" y1="45.38" x2="282.31" y2="209.38" gradientUnits="userSpaceOnUse">
      <stop offset=".31" stop-color="#eb0037"/>
      <stop offset=".55" stop-color="#666"/>
      <stop offset=".76" stop-color="#d4d8df"/>
    </linearGradient>
    <linearGradient id="linear-gradient-12" x1="350.4" y1="376.87" x2="386.27" y2="376.87" xlink:href="#linear-gradient-10"/>
    <linearGradient id="linear-gradient-13" x1="307.67" y1="186.39" x2="361.15" y2="186.39" xlink:href="#linear-gradient-2"/>
  </defs>
  <g id="Layer_4" data-name="Layer 4">
    <rect x="-5" y="-5" width="754" height="441" style="fill: #eb0037;"/>
  </g>
  <g id="Layer_5" data-name="Layer 5">
    <g>
      <path d="M233.06,92.95s87.86-35.53,136.52-47.24c0,0,100.83,26.4,138.45,47.24,0,0,8.45,5.95,8.45,14.89s1.79,161.36-97.05,242.34c0,0-35.73,31.56-42.28,33.34-6.55,1.79-13.1-.6-17.27-3.57-4.17-2.98-75.02-51.21-113.13-143.5,0,0-25.15-65.5-22.17-108.96l.48-20.36s.85-11.2,7.99-14.18Z" style="filter: url(#drop-shadow-7); opacity: .35;"/>
      <path d="M234.24,73.2s87.86-35.53,136.52-47.24c0,0,100.83,26.4,138.45,47.24,0,0,8.45,5.95,8.45,14.89s1.79,161.36-97.05,242.34c0,0-35.73,31.56-42.28,33.34-6.55,1.79-13.1-.6-17.27-3.57s-75.02-51.21-113.13-143.5c0,0-25.15-65.5-22.17-108.96l.48-20.36s.85-11.2,7.99-14.18Z" style="fill: url(#linear-gradient); filter: url(#drop-shadow-8);"/>
      <path d="M480.77,228.3c-.24,.53-.48,1.06-.72,1.58-.92,2-1.88,3.97-2.87,5.87-.7,1.35-1.41,2.68-2.13,4.01-.25,.48-.51,.95-.77,1.42-.21,.39-.43,.77-.64,1.16h0c-.92,1.65-1.85,3.28-2.8,4.9h0c-.41,.7-.81,1.39-1.22,2.08-.85,1.41-1.7,2.81-2.56,4.21-.02,.03-1.11,1.79-1.64,2.63h0c-2.21,3.5-4.46,6.92-6.77,10.28-1.65,2.4-3.32,4.76-5.01,7.08h0c-.16,.22-.31,.43-.47,.65-.67,.9-1.32,1.8-2,2.69-5.88,7.89-11.97,15.33-18.1,22.29,0,0-.01,.02-.03,.03-.29,.33-.58,.66-.88,.99-.27,.3-.54,.6-.8,.9-.85,.95-1.69,1.89-2.54,2.81-.43,.48-.87,.96-1.31,1.43-4.52,4.92-9.04,9.56-13.47,13.89-10.92,10.67-21.35,19.51-30.23,26.18-1.32,.99-2.6,1.93-3.86,2.83-1.77,1.27-3.46,2.43-5.07,3.49-.08,.06-.15,.1-.22,.16-.17,.12-.35,.22-.52,.34l-.11-6.56c-1.88,.04-3.76,.06-5.64,.07l.09,4.99c-.94-.62-2.04-1.37-3.29-2.24-.35-.25-.72-.51-1.11-.78-.85-.6-1.77-1.25-2.74-1.95-1.21-.88-2.5-1.83-3.86-2.87-7.68-5.8-17.73-14.02-28.68-24.66-3.03-2.94-6.14-6.07-9.28-9.39-.01-.01-.02-.02-.04-.04-.38-.4-.77-.81-1.14-1.22l-.12-.12s0,0,0,0c-.62-.66-1.24-1.33-1.86-2-.53-.57-1.06-1.15-1.58-1.74,0,0-.01,0-.01-.01-.21-.23-.42-.46-.64-.7-.37-.41-.73-.81-1.1-1.23-.37-.41-.74-.82-1.11-1.24-1.52-1.72-3.05-3.5-4.59-5.32-.4-.47-.79-.94-1.19-1.42-2.74-3.29-5.49-6.72-8.21-10.3-1.51-1.97-3-3.98-4.49-6.03-4.11-5.68-8.14-11.67-12.02-17.98-.12-.17-.22-.34-.31-.51-.77-1.26-1.55-2.53-2.31-3.82-2.03-3.43-4.02-6.95-5.93-10.56-.74-1.38-1.47-2.77-2.19-4.18-2.28-4.45-4.46-9.02-6.54-13.73,0,0-.48-1.09-.72-1.63-1.46-3.38-2.85-6.71-4.17-9.99-1.67-4.17-3.22-8.26-4.66-12.27-.02-.06-.04-.12-.06-.17-.12-.33-.24-.67-.35-.99-3.04-8.55-7.71-24.6-7.73-24.65-.05-.17-.09-.34-.14-.51-.67-2.46-1.28-4.88-1.86-7.25-.07-.28-.14-.56-.2-.84-12.65-52.43-5.84-84.43-5.84-84.43,0,0,19.34-10.48,84.54-31.44,3.42-1.09,6.95-2.21,10.63-3.38,.67-.21,1.34-.42,2.01-.63h0c.56-.17,1.13-.35,1.7-.54h0c6.97-2.17,14.39-4.44,22.28-6.82,1.78-.54,3.59-1.08,5.42-1.63,1.52-.46,3.06-.91,4.62-1.37,.72-.22,1.43-.43,2.16-.64,0,0,1.18,.31,3.32,.89,4.67,1.27,13.91,3.8,25.46,7.12,0,0,.01,0,.03,0,1.06,.31,2.15,.62,3.26,.94,.17,.04,.34,.09,.51,.14,.01,0,.02,0,.03,0,4.22,1.24,8.7,2.56,13.34,3.95,33.15,9.96,74.26,23.58,87.22,33.39,0,0,.19,89.63-24.18,144.37Z" style="fill: #223654;"/>
      <path d="M432.22,300.19h0c-.27,.32-.56,.62-.88,.9-.85,.95-1.69,1.89-2.54,2.81-.43,.48-.87,.96-1.31,1.43-4.52,4.92-9.04,9.56-13.47,13.89-10.92,10.67-26.68,23.51-35.57,30.18-1.32,.05,2.68-3.91,1.34-3.87-1.92,.05-3.86,.1-5.79,.14-1.88,.04-3.76,.06-5.64,.07-2.37,.02-4.71,.02-7.03,.01-1.35,0-2.7-.02-4.03-.04l.17-2.82c-7.68-5.8-17.73-14.02-28.68-24.66-3.03-2.94-6.14-6.07-9.28-9.39-.01-.01-.02-.02-.04-.04-.38-.4-.77-.81-1.14-1.22l-.12-.12s0,0,0,0c-.62-.66-1.24-1.33-1.86-2-.74-.5-2.08-2.46-2.08-2.46l-2.38-3.52,15.78,3.85,11.04-.33,33.78-1.01,3.78-.12,55.86-1.67h.08Z"/>
      <path d="M368.7,332.56l-7.24,9.96s-17.46-10.28-17.31-14.27l18.04-22.63,6.51,20.83v6.11Z" style="stroke: #000; stroke-linecap: round; stroke-linejoin: round; stroke-width: .64px;"/>
      <path d="M373.76,333.29l17.81,3.86s6.89-4.18,6.74-8.17l-24.55-7.48v5.68s0,6.11,0,6.11Z" style="stroke: #000; stroke-linecap: round; stroke-linejoin: round; stroke-width: .64px;"/>
      <path d="M421.16,256.78l23.45-23.19-1.77,11.05-.9,5.57-.83,5.2-2.41,15.01-3.61,22.52c-.05,2.32-.8,4.46-2.04,6.24,0,0-.01,.02-.03,.03-.24,.35-.51,.68-.8,1-.27,.31-.56,.61-.88,.89-2.03,1.83-4.74,2.93-7.69,2.89l-44.78-.11-14.97-.04-27.24-.07h-8.66s-13.23-.05-13.23-.05l-.7-1.35-1.45-1.45-1.02-9.51,.3-29.57c.09-1.01-4.98-16.25-4.34-17.37,3.42-6.1,10.17-12.64,21.82-19.48,3.57-2.09,7.21-4.12,10.72-6.01,13.02-6.98,24.39-12.11,24.39-12.11l4.78-1.46,4.99-1.53,11.87,3.26,42.14,11.56,1.59,.43-8.71,37.63Z"/>
      <path d="M317.16,237.7s3.46,53.89,45.12,54.57c41.66,.68,52.63-49.53,52.63-49.53,0,0-33.69-37.11-45.65-33.62-11.95,3.48-52.1,28.58-52.1,28.58Z"/>
      <path d="M332.2,78.96l4.78,34.67s23.91,22.71,31.08,22.71c0,0,20.32-9.56,27.5-17.93l10.76-37.16v-21.42l-71.73,2.39-2.39,16.74Z" style="fill: #d4d8df;"/>
      <path d="M334.55,77.26c-.11,.74,.18,1.48,.75,1.95,4.74,3.92,26.52,16.48,35.36,16.91s27.56-9.3,31.62-12.6c.5-.41,.79-1.01,.79-1.66v-3.72c0-1.73-1.95-2.75-3.37-1.75-6.51,4.56-16.89,9.61-29.19,9.61-10.15,0-26.19-9.39-32.31-13.13-1.31-.8-3.01,0-3.23,1.53l-.41,2.86Z" style="fill: url(#linear-gradient-2);"/>
      <path d="M369.26,102.46l-1.2,33.89s-21.52-7.17-31.08-22.71l-4.78-34.67s28.69,23.08,37.06,23.5Z" style="fill: gray;"/>
      <polygon points="371.66 104.07 371.66 130.87 375.24 127.98 375.24 102.87 371.66 104.07"/>
      <polygon points="378.68 101.81 378.68 127.32 382.56 124.52 382.56 99.48 378.68 101.81"/>
      <polygon points="386.06 99.07 386.06 122.69 389.58 120.16 389.58 96.93 386.06 99.07"/>
      <polygon points="393.17 95.7 393.17 118.21 396.49 115.21 396.49 93.63 393.17 95.7"/>
      <path d="M335.5,102.87l-18.34,15.34s21.02,26.36,52.1,40.18l-1.2-22.04s-24.49-10.76-32.57-33.47Z" style="fill: url(#linear-gradient-3);"/>
      <path d="M369.26,158.39s40.87-20.35,47.33-41.52l-16.81-13.03-4.22,14.57-27.5,17.93,1.2,22.04Z" style="fill: url(#linear-gradient-4);"/>
      <path d="M369.26,158.39v52.18s-53.35,29.66-61.71,40.42c0,0-18.36-92,14.5-127.23,0,0,35.26,31.57,47.21,34.63Z" style="fill: gray;"/>
      <path d="M304.69,197.75l-4.79,.46-4.49,.43-40.88,3.95c-.12-.33-12.08-.47-12.11-.82-.72-10.85-.45-15.13-1.45-25.33,0,0,58.68,.22,59.37,.21h0l.06,.28,.75,3.63,3.53,17.18Z" style="fill: url(#linear-gradient-5);"/>
      <path d="M295.41,198.65l-.02,.28c-.01,.14-.03,.33-.04,.56-.07,.91-.31,2.5-.33,4.55-.1,9.86-.93,27.94-1.51,32.58-.03,.25-.02,.49-.1,.73-.12,.37-.34,.73-.66,1.08-.26,.28-.58,.56-.96,.82-3.26,2.31-26.71,3.94-34.89,5.22-.74-1.38-10.26-30-11.58-33.29-1.67-4.17,10.71-4.41,9.27-8.42l40.82-4.12Z" style="fill: url(#linear-gradient-6);"/>
      <path d="M369.26,210.57s31.08,3.48,51.41,41.74c0,0,37.28-105.9-4.08-135.44,0,0-13.86,26.5-47.33,41.52v52.18Z" style="fill: gray;"/>
      <path d="M366.41,103.84l-.87,27.27s-25.77-21.52-27.16-27.27-3.89-19.27-3.89-19.27c0,0,19.5,16.66,31.92,19.27Z" style="fill: #d4d8df; opacity: .17;"/>
      <path d="M334.6,62.23s-4.78-35.86,33.47-38.26c38.26-2.39,38.26,35.86,38.26,35.86,0,0-3.78,17.73-35.96,15.44-32.18-2.29-35.77-13.05-35.77-13.05Z" style="fill: url(#linear-gradient-7);"/>
      <path d="M375.19,76.46s.04,.01,.06,.02c0,0-27.48-.24-41.07-11.27l.33-9.53s13.89,9.11,29.26,16.14c2.03-7.84,7.46-30.55,5.51-42.11,0,0,21.23,29.96,23.17,43.19,0,0-6.07,3.92-17.25,3.56Z" style="fill: #d4d8df; opacity: .17;"/>
      <path d="M319.72,129.33s30.42,28.39,49.54,29.06c0,0-38.23-26.89-47.21-34.63l-2.33,5.57Z" style="fill: #646566;"/>
      <path d="M295.41,198.65l-.02,.28-.04,.56-.33,4.55s-35.31,4.77-48.24,12.94c-1.45-5.79-2.9-11.19-4.34-15.2l52.98-3.13Z"/>
      <path d="M304.69,197.75l-4.79,.46-4.49,.43-40.88,3.95c-.12-.33-.24-.67-.35-.99,14.5-2.71,38.24-7.13,43.08-8.05,7.08-1.34-.84-16.4-.84-16.4l.2-.02,3.73-.47h0l.06,.28,.75,3.63,3.53,17.18Z"/>
      <path d="M305.38,240.86l29.9-18.93c4.75-2.47,9-5.8,12.48-9.87,7.64-8.95,16.91-26.96,14.81-54.91l6.7,1.25v52.18s-54.54,40.01-61.71,48.38l-2.17-18.09Z"/>
      <path d="M375.24,155.49s1.48,45.12,11.95,52.59,22.71,20.32,35.83,36.94l-2.36,7.29s-28.69-39-51.41-40.29v-53.63l5.98-2.9Z"/>
      <path d="M369.26,158.39s41.78-12.55,53.76-34.63l-6.43-6.89s-24.62,31.29-47.33,41.52Z" style="fill: #646566;"/>
      <path d="M418.49,117.08s.21-.04,.6-.1c29.55-4.54,57.98,13.21,67.06,41.69l6.39,20.05s-21.15,1.65-40.47-.8l-23.63-2.7-15.45-53.19,5.49-4.95Z" style="fill: url(#linear-gradient-8);"/>
      <path d="M487.33,179.01l2.04,27.45-61.44-9.88,5.66-20.77s48.53,3.5,53.75,3.2Z" style="fill: url(#linear-gradient-9);"/>
      <path d="M484.73,205.93l.92,29.48c-.39,.9-.79,1.8-1.18,2.69h0c-.77,1.72-2.36,5.13-2.36,5.13-.34,.73-.69,1.45-1.04,2.17-6.27-.27-17.49-.92-27.07-2.32-1.84-.27-3.62-.57-5.29-.89-1.08-.21-2.11-.43-3.09-.67-5.52-1.34-9.26-3.1-8.99-5.43,.14-1.21,.25-2.88,.34-4.84,.04-1.03,.08-2.14,.12-3.32,.07-2.89,.11-6.14,.14-9.4,.04-5.55,0-11.12-.03-15.05v-.64c0-.36,0-.71-.02-1.04v-.94c-.01-.44-.02-.83-.03-1.18,0-.31,0-.58-.01-.81v-.81s3.72,.62,3.72,.62l43.88,7.26Z" style="fill: url(#linear-gradient-10);"/>
      <path d="M422.93,116.38l-4.13,9.9s8.42,44.94,15.69,44.57c7.26-.37,54.78-1.37,56.69,2.92,0,0,1.83,2.46,.94,6.28,0,0-55.04-2.4-63.67-4.84l-16.18-53.19,3.32-5.68,7.33,.03Z"/>
      <path d="M484.73,205.93l.92,29.48c-.39,.9-.79,1.8-1.18,2.69-1.02-3.5-2.71-8.19-5.54-14.01-5.54-11.39-29.64-17.88-38.47-19.91-2.03-.47-3.26-.7-3.26-.7v-.64s-.02-1.04-.02-1.04v-.94s-.03-1.18-.03-1.18v-.81s-.02-.81-.02-.81l3.72,.62,43.88,7.26Z"/>
      <path d="M437.48,176.55s-8.85,14.54-1.87,16.32,53.76,13.6,53.76,13.6l-61.44-9.88,5.66-20.77,3.89,.74Z"/>
      <path d="M478.84,249.92c-.44,.9,.29,9.16-3.28,15.08l-8.31,5.93c-17.77,12.94-44.29,31.73-70.22,48.04-.09,.05-.17,.11-.26,.16,0,0-15.92-1.6-18.68-9.42,0,0,1.1-1.49,3-4.05,10.89-14.67,48.01-64.55,55.75-72.88,0,0,24.5,8.59,41.99,17.15Z" style="fill: gray;"/>
      <path d="M293.8,236.52s-.71,2.91-1.01,3.52c-2.32,4.72-8.75,14.96-16.27,24.42-.16-.21-2.78,.45-2.91,.24-12.38,.04-18.89-21.85-18.89-25.54,16.45-2.6,39.07-2.64,39.07-2.64Z"/>
      <path d="M485,236.89c3.65,11.7-7.43,24.56-9.44,28.1-3.35,2-12.25-2.29-17.38-6.79-3.68-3.24-7.45-7.39-10.77-11.4-5.83-7.05-10.31-13.64-10.55-14.01-.02,0-.02-.01-.02-.01h0c.33,.02,8.54,.71,18.53,1.94,8.25,1.01,20.73,1.18,29.61,2.17Z"/>
      <path d="M324.3,124.3l-.37,1.02-.03,.08-.08,.22-2.01,5.59-6.24,17.3-5.94,16.46-4.12,11.43-3.87,.2-1.29,.07h0l-13.6,.69-2.36-.9c-9.36,.59-21.7,1.35-29.26,.8-.01,0-.04,0-.05,0-3.21-.25-8.7-.8-8.77-.8-.67-2.46-1.28-4.88-1.86-7.25-.19,.01-.37,.03-.55,.05l-2.92-.03,4.34-14.47c10.4-26.66,41.53-40.89,69.47-36.57,.91,.14,1.82,.3,2.74,.49,.26,.04,.53,.1,.79,.16l.22,.04,.26,.06,.19,.04,.15,.04,5.17,5.29Z" style="fill: url(#linear-gradient-11);"/>
      <path d="M324.3,124.3l-.37,1.02-.03,.08-.08,.22-2.01,5.59-6.24,17.3-5.94,16.46-4.12,11.43c-.85,.18-2.19,.34-3.91,.46-.38,.03-.77,.06-1.19,.08-1.14,.07-2.42,.13-3.8,.19-2.88,.11-6.24,.18-9.86,.22-9.96,.12-21.95,.02-31.62-.1-.01,0-.04,0-.05,0-3.16-.05-14.06-.63-14.1-.8-.67-2.46-1.01-4.88-1.59-7.26,14.14-1.16,54.5,1.79,60.39,2.47,.9,.1,1.86-.49,2.85-1.61,6.61-7.47,14.68-38.27,15.54-41.59,.04-.19,.07-.29,.07-.29l-3.44-10-.05-.14,2.77,.62,.8,.18,.22,.04,.26,.06,.19,.04,.15,.04,5.17,5.29Z"/>
      <g>
        <path d="M380.2,347.57s-.02,.01-.04,.02l-.1-2.06-.42-8.18-1.28-25.21h-18.81l-1.19,20.09-.62,10.66-.16,2.7h0l-7.18,96.02h35.87l-6.06-94.04Z" style="fill: url(#linear-gradient-12);"/>
        <polygon points="369.36 313.64 368.49 441.6 376.15 441.6 375 313.58 369.36 313.64" style="stroke: #000; stroke-linecap: round; stroke-linejoin: round; stroke-width: .94px;"/>
      </g>
      <path d="M379.46,315.25c0,.08-.02,.13-.08,.16-3.09,1.43-9.6,15.9-16.11,14.45-3.18-.71-26.84-14.33-50.25-28.09,0,0-.03-.04-.09-.11-.34-.37-.68-.75-1.01-1.14-1.52-1.72-3.05-3.5-4.59-5.32-.4-.47-.79-.94-1.19-1.42-2.09-2.51-4.19-5.1-6.27-7.78-.03-.04-.06-.07-.09-.11-.62-.8-4.86-6.39-6.34-8.44-4.11-5.68-8.14-11.67-12.02-17.98-.12-.17-2.05-.69-2.81-1.98l14.14-19.07s3.19,2.68,8.34,7.05h0c14.69,12.45,45.34,38.55,63.66,55.12,8.72,7.88,14.64,13.6,14.72,14.65Z" style="fill: gray;"/>
      <path d="M373.4,308.15s22.48,11.87,22.43,14.47-7.91,11.86-7.91,11.86l-8.15,5.36s-1.33-5.13-3.49-6.11-13.02-3.88-13.02-3.88l10.13-21.71Z"/>
      <path d="M363.22,330.56l-50.21-28.79s-.03-.04-.09-.11c-.78-.9-46.74-35.7-48.06-41.27l27.89-21.96s3.19,2.68,8.34,7.05h0c.42,2.29,3.93,17.89,25.28,44.58,22.43,28.04,36.04,39.83,36.86,40.49Z" style="fill: #646566;"/>
      <path d="M262.55,210.68s-10.92,17.19-6.11,29.83l-1.22,1.6s-9.89-21.52-12.79-40.33l20.12,8.9Z"/>
      <path d="M440.89,238.43s6.32,17.62-6.71,35.71c-13.02,18.09-37.4,44.98-37.4,44.98l43.61-28.51,35.18-25.62s-30.87-19.58-34.68-26.56Z" style="fill: #646566;"/>
      <path d="M252.49,158.39h26.95s12.92-14.39,25.94-22.04c0,0-37.77-3.98-52.89,22.04Z" style="fill: #d4d8df; opacity: .17;"/>
      <path d="M452.32,163.5h26.52s-12.22-24.9-34.23-32.38c0,0,7.76,17.98,7.71,32.38Z" style="fill: #d4d8df; opacity: .17;"/>
      <path d="M386,162.24s-.98,28.07,1.51,32.27,22.43,34.76,29.78,34.76c.25,0,8.93-55.73,8.93-55.73l-15.8-25.34-24.42,14.04Z" style="fill: #d4d8df; opacity: .17;"/>
      <path d="M349.33,162.24s.98,28.07-1.51,32.27c-2.49,4.21-22.43,34.76-29.78,34.76-.25,0-8.93-55.73-8.93-55.73l15.8-25.34,24.42,14.04Z" style="fill: #d4d8df; opacity: .17;"/>
      <path d="M361.15,169.13s-26.3-20.32-35.86-13.15-16.74,70.53-16.74,70.53c0,0-4.37-44.8,6.4-71.56,2.94-7.31,11.4-10.73,18.55-7.43s16.74,9.55,27.66,21.61Z" style="fill: url(#linear-gradient-13); opacity: .37;"/>
      <path d="M276.52,264.46s70.27,49.49,69.82,49.12,1.05-8.86,10.07-11.12l-62.62-53.32s-17.19,7.08-17.28,15.32Z" style="fill: #d4d8df; opacity: .17;"/>
      <path d="M389.87,305.62s12.42,1.09,12.81,6.51c0,0,55.63-44.43,56.59-46.64s-17.85-10.17-23.17-16.36c-.27-.31-46.22,56.48-46.22,56.48Z" style="fill: #d4d8df; opacity: .17;"/>
      <path d="M440.22,362.54c.07,.18,.15,.35,.21,.52-.19-.05-.38-.1-.57-.15,.12-.13,.24-.25,.35-.38Z" style="fill: #eb0037;"/>
      <path d="M301.49,365.66l-.2-.07c-.04-.09-.08-.18-.12-.26,.06,.07,.12,.13,.18,.2,.04,.04,.09,.09,.13,.13Z" style="fill: #eb0037;"/>
      <path d="M303.97,366.46c-.35,.23-.69,.44-1.05,.66-.53-.53-1.01-1.02-1.44-1.46l2.48,.8Z" style="fill: #eb0037;"/>
      <path d="M301.49,365.66l-.2-.07,.07-.07s.09,.09,.13,.13Z" style="fill: #7a1123;"/>
      <path d="M356.3,26.09l6.73-14.09h14.7l8.33,14.09s-21.2-3.86-29.76,0Z"/>
    </g>
  </g>
</svg>